<svg xmlns="http://www.w3.org/2000/svg" viewBox="0 0 300 150" fill="none" stroke="currentColor" stroke-width="7" stroke-linecap="round" stroke-linejoin="round" role="img" aria-label="Asfer">
  <path d="M24 106 Q 44 40 62 22 Q 80 44 96 106"/>
  <path d="M40 78 Q 66 69 94 78"/>
  <path d="M126 68 C 114 60, 102 68, 110 77 C 118 84, 126 90, 117 97 C 111 102, 101 99, 101 92"/>
  <path d="M154 32 C 142 28, 137 44, 136 64 L 132 118 C 130 134, 119 138, 114 128 C 110 119, 120 116, 126 121"/>
  <path d="M121 66 L 156 60"/>
  <path d="M150 93 L 167 90 C 170 80, 154 78, 150 89 C 146 99, 160 105, 170 97"/>
  <path d="M182 104 C 183 92, 186 80, 188 76 C 191 66, 203 64, 207 74"/>
  <path d="M14 134 C 70 129, 150 128, 210 131 C 238 132, 262 132, 284 128"/>
</svg>
